<svg width="40" height="37" viewBox="0 0 40 37" fill="none" xmlns="http://www.w3.org/2000/svg">
<path d="M22.8442 24.781C22.8442 24.781 23.012 24.1099 21.0861 23.1323C19.9408 22.5487 18.8247 22.6801 17.6721 22.3299C16.5195 21.9797 13.616 20.7615 13.616 20.7615C13.0637 20.042 12.4564 19.3664 11.7996 18.7408C11.2038 18.2087 10.5476 17.7484 9.84452 17.3693C9.57993 17.6017 9.35129 17.8722 9.16609 18.1717C8.92685 18.5362 8.7379 18.9312 8.60437 19.3462C8.60437 19.3462 11.0774 22.4758 13.7109 23.3074C14.9097 23.7638 16.178 24.0106 17.4605 24.0369C17.7012 24.0369 19.3426 24.1391 20.3347 24.1609C21.2049 24.1937 22.059 24.4048 22.8442 24.781V24.781Z" fill="white"/>
<path d="M25.6017 29.1726C25.6432 28.5054 25.484 27.8411 25.1447 27.2652C24.8054 26.6892 24.3014 26.228 23.6977 25.9409C24.4272 28.5088 22.1585 30.3179 22.1585 30.3179C21.0212 30.9568 19.7902 31.4123 18.511 31.6675C15.8045 32.3824 12.6312 29.5666 12.6312 29.5666C11.8303 28.9283 11.097 28.2096 10.4427 27.4218C9.12961 25.9045 8.67732 25.175 8.29798 23.8619C7.98648 22.5487 7.88065 21.1952 7.98429 19.8496C8.0074 19.2935 8.14917 18.7488 8.40011 18.252C8.83119 17.6983 9.19599 17.096 9.48706 16.4574C9.5746 16.0051 9.07125 16.1 9.07125 16.1C9.07125 16.1 7.2402 17.1723 6.43045 15.7206C5.89792 14.765 6.11677 13.8969 5.36538 13.6416C5.36538 13.6416 4.63588 16.6325 2.48386 17.2015C0.900838 17.6173 0.776823 15.8592 0.776823 15.8592C0.456084 17.0089 0.212376 18.1787 0.0473225 19.3608C-0.104092 21.3282 0.108588 23.3066 0.674693 25.1968C1.40419 27.8449 3.1477 30.1793 5.0517 32.0615C6.97783 34.1111 9.49886 35.5043 12.2592 36.0445C14.8051 36.5844 18.8247 35.9643 20.8454 34.6585C21.7253 34.0588 22.5015 33.3196 23.1433 32.47V32.47C25.1276 31.3392 28.6073 32.3095 28.6073 32.3095C28.6802 30.4347 25.6017 29.1726 25.6017 29.1726Z" fill="white"/>
<path d="M11.6318 4.25286C13.047 2.62608 12.6385 2.06436 12.6385 2.06436C12.0469 2.70714 11.3292 3.22118 10.5302 3.57443C9.61105 3.96836 8.13746 4.69786 7.91131 4.77081C6.73404 5.28028 5.65321 5.9885 4.7161 6.86448C2.60054 8.62257 1.47711 12.4525 1.47711 12.4525L1.3458 12.9558C1.24161 13.5455 1.20976 14.1457 1.25097 14.7431C1.34184 15.3584 1.63131 15.9271 2.0753 16.3626C2.25039 16.6106 3.403 15.8884 4.11791 14.8014C4.83282 13.7145 4.60667 13.0798 4.60667 13.0798L4.30758 12.54C4.45244 12.3044 4.58395 12.0608 4.70151 11.8105C5.07579 10.9846 5.38554 10.131 5.62797 9.25724C5.62797 9.25724 7.86025 7.06874 8.8013 6.28088C9.74236 5.49302 10.7855 5.2231 11.6318 4.25286Z" fill="white"/>
<path d="M32.9333 14.2689L28.6948 6.93015L24.4637 14.2689H32.9333Z" fill="white"/>
<path d="M24.5043 8.01901C25.9489 6.47954 25.8721 4.06044 24.3326 2.61579C22.7931 1.17114 20.374 1.24801 18.9294 2.78748C17.4847 4.32695 17.5616 6.74605 19.1011 8.1907C20.6405 9.63535 23.0596 9.55848 24.5043 8.01901Z" fill="white"/>
<path d="M29.1205 25.4765L33.885 20.7912L29.1997 16.0268L24.4352 20.7121L29.1205 25.4765Z" fill="white"/>
<path d="M14.6592 11.2415L12.0111 12.2482C12.082 12.5972 12.082 12.9569 12.0111 13.306C12.9668 13.0579 14.7103 12.5765 15.6586 12.3066C16.5918 12.0534 17.5623 11.9669 18.5256 12.0512C18.4275 11.5733 18.1443 11.1537 17.7377 10.884C17.4019 10.7704 17.0489 10.7161 16.6945 10.7235C15.9873 10.7516 15.2938 10.9281 14.6592 11.2415V11.2415Z" fill="white"/>
<path d="M17.0082 14.1011C17.4472 14.0772 17.8778 13.9708 18.2775 13.7874C18.5182 13.5613 17.9638 12.5619 17.9638 12.5619C17.7209 12.5472 17.4773 12.5472 17.2343 12.5619C16.3093 12.692 15.395 12.8895 14.4987 13.1528L11.9017 13.7364C11.8188 13.9501 11.7111 14.1533 11.5807 14.3419L14.2798 14.4221L17.0082 14.1011Z" fill="white"/>
<path d="M12.3612 9.49797C12.1059 9.65846 11.4056 10.2275 10.9022 10.6214C11.0547 10.718 11.1966 10.8305 11.3253 10.957C12.4046 10.1611 13.5783 9.50201 14.8196 8.99462C15.5454 8.86814 16.289 8.88549 17.0081 9.04568C17.0081 9.04568 17.4313 9.36666 16.6361 8.5788C15.8409 7.79094 15.3157 7.8493 15.3157 7.8493C15.0082 7.90621 14.7092 8.0018 14.4257 8.1338C13.7149 8.55324 13.0258 9.00855 12.3612 9.49797V9.49797Z" fill="white"/>
<path d="M16.1911 10.2858C16.979 10.1254 17.0738 10.2129 17.0738 10.2129C17.0299 10.0397 16.9584 9.87469 16.8622 9.72413C16.8622 9.72413 16.8039 9.52716 16.2713 9.41774C15.7005 9.33852 15.1191 9.39092 14.5716 9.57093C13.541 10.0657 12.5486 10.6362 11.6025 11.278C11.6025 11.3217 11.6755 11.3509 11.6974 11.402C11.7727 11.5322 11.8362 11.6689 11.887 11.8105L13.8567 11.081C14.6167 10.7654 15.3965 10.4998 16.1911 10.2858V10.2858Z" fill="white"/>
<path d="M10.5959 8.79765C10.163 9.21867 9.76303 9.67229 9.39954 10.1545C9.77142 10.1593 10.1386 10.2387 10.4792 10.388C11.0628 9.92838 12.0257 9.17699 12.6677 8.7174C13.3732 8.22336 14.1317 7.80983 14.9292 7.48455C14.9292 7.48455 14.5717 6.93013 14.1997 6.86447C13.8276 6.79882 13.6379 6.98849 12.7917 7.38242C12.0127 7.77675 11.2768 8.25105 10.5959 8.79765V8.79765Z" fill="white"/>
<path d="M19.1967 14.0063L18.6204 14.1887C18.3651 14.2689 16.4319 14.5899 15.7608 14.7066C14.7222 14.8268 13.676 14.8683 12.6312 14.8306H11.1722C11.0561 14.9398 10.9317 15.0398 10.8002 15.1297C11.9017 15.4361 14.0756 16.0343 15.1772 16.1948C16.3984 16.3322 17.6345 16.2457 18.8247 15.9395C19.3791 15.8009 19.5542 15.7498 19.6271 15.261C19.604 14.8107 19.4549 14.376 19.1967 14.0063Z" fill="white"/>
<path d="M7.81645 10.6068C8.10988 10.4329 8.43047 10.3096 8.7648 10.2421C9.38107 9.42557 10.0776 8.67286 10.8439 7.9952C11.6009 7.46057 12.407 6.99891 13.2512 6.61644C13.2512 6.61644 12.5217 5.88694 11.1065 6.61644C10.2027 7.08237 9.40532 7.73069 8.7648 8.52044C8.7648 8.52044 6.69301 11.2634 6.57629 12.0585C6.57629 12.1023 6.57629 12.1315 6.57629 12.1752C6.79698 11.5254 7.23497 10.9714 7.81645 10.6068V10.6068Z" fill="white"/>
<path d="M14.8708 16.5887C14.8708 16.5887 10.946 15.6477 10.6397 15.5455C10.5146 15.5003 10.3927 15.4467 10.2749 15.385C10.0603 15.4817 9.835 15.5527 9.60376 15.5966C10.7552 16.2579 11.9792 16.7842 13.2513 17.165C14.4101 17.5566 15.646 17.6642 16.855 17.4787C17.1342 17.463 17.4018 17.3624 17.6222 17.1903C17.8425 17.0181 18.005 16.7828 18.0879 16.5158C17.0202 16.6419 15.943 16.6663 14.8708 16.5887V16.5887Z" fill="white"/>
<path d="M10.4076 14.8314C11.5594 14.1278 11.967 12.6961 11.318 11.6337C10.669 10.5714 9.20919 10.2805 8.05741 10.9841C6.90563 11.6877 6.49804 13.1193 7.14703 14.1817C7.79603 15.2441 9.25585 15.535 10.4076 14.8314Z" fill="white"/>
</svg>
